<svg version="1.1" xmlns="http://www.w3.org/2000/svg" xmlns:xlink="http://www.w3.org/1999/xlink" width="128.76378" height="116.44487" viewBox="0,0,128.76378,116.44487"><g transform="translate(-173.20026,-114.81954)"><g data-paper-data="{&quot;isPaintingLayer&quot;:true}" fill-rule="nonzero" stroke-linecap="butt" stroke-linejoin="miter" stroke-miterlimit="10" stroke-dasharray="" stroke-dashoffset="0" style="mix-blend-mode: normal"><g><path d="M237.35429,210.076l2.65751,18.61915" fill="none" stroke="#ffdb5d" stroke-width="1.575"/><path d="M227.52838,230.47691c3.16413,-0.45162 2.72722,-3.51267 5.89135,-3.96429c3.16413,-0.45162 3.60103,2.60944 6.76516,2.15782c3.16218,-0.45134 2.72528,-3.51239 5.88746,-3.96373c3.16315,-0.45148 3.60006,2.60958 6.76224,2.15824" fill="none" stroke="#ffdb5d" stroke-width="1.575"/><path d="M237.66818,200.402l1.64103,11.49743c0.22733,1.59276 -1.58904,2.66561 -2.87771,1.70058l-13.73572,-10.28015z" fill="#fff4e3" stroke="none" stroke-width="1"/></g><g><path d="M205.89211,200.29406l5.91234,13.2909c1.36887,3.07645 1.45764,6.56817 0.24777,9.706l-1.82182,4.72494" fill="none" stroke="#ffdb5d" stroke-width="1.575"/><path d="M223.14582,194.76396l-15.97545,7.06256c-1.49987,0.66279 -3.05696,-0.81643 -2.46767,-2.34476l4.25379,-11.03233z" fill="#fff4e3" stroke="none" stroke-width="1"/></g><g stroke="none" stroke-width="1"><path d="M272.0734,175.29803c-11.79231,22.78825 -39.84709,31.74408 -62.66196,20.00336c-22.81396,-11.74101 -31.74947,-39.73213 -19.95836,-62.521z" fill="#fff4e3"/><path d="M178.58572,136.11224l8.00929,-2.55678l-10.35001,-5.32507l9.96091,-3.17979l-13.00564,-6.69396c1.54313,-0.78823 3.16609,-1.46766 4.87035,-2.0117c16.81341,-5.36729 34.78305,3.8807 40.13814,20.65591c0.49005,1.53511 5.48385,17.11892 6.01686,18.78862l-21.65678,-7.33441z" fill="#fff4e3"/><path d="M274.82249,200.001l-39.86698,-15.00045l36.63346,-9.85452c0,0 11.78227,4.51912 16.59931,16.79933z" fill="#fff4e3"/><path d="M257.21413,167.65056c-7.55138,14.5921 -25.51339,20.32605 -40.12192,12.80798c-10.56266,-5.43556 -16.47935,-16.31052 -16.09178,-27.43327l15.96816,8.21742l-11.65173,-20.29875z" fill="#f3e4ce"/></g><g stroke="none" stroke-width="1"><path d="M284.54414,212.498c-3.00092,2.08825 -7.12422,1.35383 -9.20848,-1.64135c-2.08368,-2.99436 -1.33951,-7.11591 1.66141,-9.20416c3.00256,-2.08939 7.12504,-1.3544 9.20873,1.63996c2.08425,2.99518 1.3409,7.11616 -1.66166,9.20555" fill="#ce2235"/><path d="M299.42103,200.22925c-0.70001,0.2861 -1.12445,1.02248 -1.00692,1.76913c0.26115,1.66033 -0.51838,3.41133 -2.1676,4.27145c-1.60335,0.83674 -3.62811,0.49015 -4.85485,-0.83329c-1.30498,-1.40788 -1.41063,-3.39449 -0.5186,-4.88752c-1.508,-2.67129 -5.53016,-9.79416 -5.68429,-10.10843c-0.18972,-0.38819 1.83518,-2.00924 1.83518,-2.00924l-0.96837,-1.37409c-1.10603,-1.86429 -0.56445,-4.30739 1.30447,-5.51532c1.81581,-1.1722 4.32557,-0.68188 5.56279,1.08381c0.34239,0.49028 0.56176,1.02962 0.66484,1.58043c0.09048,0.48893 0.52778,0.81447 1.02292,0.75744c1.44445,-0.16696 2.92852,0.44257 3.81557,1.71731c1.28802,1.85095 0.82865,4.39643 -1.0264,5.68731c-0.01806,0.01257 -0.03701,0.0221 -0.05507,0.03466c1.64702,-0.219 3.36333,0.57371 4.19479,2.21851c0.82193,1.62584 0.42081,3.67028 -0.94739,4.87821c-0.36094,0.31817 -0.75697,0.55965 -1.17107,0.72964" fill="#ce2235"/><path d="M298.66156,190.27556c0,0 0.63103,-0.93496 0.23987,0.14862c-0.39059,1.0844 -0.20345,1.89957 0.78802,2.3597c0.99204,0.46095 -2.28208,1.24447 -2.28208,1.24447l-1.07519,-1.31925l-0.03459,-1.26123z" fill="#ce2235"/><path d="M281.38213,198.43172c3.2581,-0.26556 6.56241,1.14598 8.56099,4.01804c1.99915,2.87287 2.17392,6.46095 0.79331,9.42455z" fill="#ffdb5d"/><path d="M289.69979,203.51819c-4.08687,2.84393 -9.69987,1.84378 -12.53751,-2.23406c-2.83708,-4.07702 -1.8244,-9.68777 2.26247,-12.5317c4.08687,-2.84393 9.69905,-1.84321 12.53612,2.23381c2.83765,4.07784 1.82579,9.68802 -2.26107,12.53195" fill="#e8441d"/><path d="M286.89641,199.48959c-1.85752,1.29259 -4.40735,0.83747 -5.69652,-1.01512c-1.28916,-1.85259 -0.82987,-4.40168 1.02765,-5.69427c1.8567,-1.29202 4.40653,-0.8369 5.6957,1.01569c1.28916,1.85259 0.82987,4.40168 -1.02683,5.6937" fill="#fff4e3"/><path d="M286.08533,198.32403c-1.21235,0.84364 -2.87605,0.54672 -3.71741,-0.66235c-0.84136,-1.20907 -0.54165,-2.87227 0.67071,-3.71591c1.21153,-0.84307 2.87605,-0.54672 3.71741,0.66235c0.84136,1.20907 0.54083,2.87284 -0.67071,3.71591" fill="#17242d"/></g></g></g></svg>